<svg width="221" height="221" viewBox="0 0 221 221" fill="none" xmlns="http://www.w3.org/2000/svg">
<path opacity="0.7" fill-rule="evenodd" clip-rule="evenodd" d="M219.131 124.172C219.398 122.109 219.607 120.033 219.756 117.943L43.4895 22.3873C41.8269 23.6518 40.2033 24.9615 38.6203 26.3144L219.131 124.172ZM38.1909 26.6833C36.6473 28.0163 35.1427 29.3906 33.6787 30.8039L218.073 130.766C218.456 128.771 218.785 126.759 219.057 124.733L38.1909 26.6833ZM209.291 62.5738C207.771 59.389 206.105 56.2964 204.303 53.3031L106.116 0.0741857C102.643 0.201749 99.1466 0.49484 95.6359 0.959806L209.291 62.5738ZM94.7493 1.0809C93.9283 1.19626 93.1067 1.32113 92.2844 1.45541C90.0593 1.81881 87.8607 2.24667 85.6903 2.73666L213.211 71.8674C212.145 68.9738 210.964 66.144 209.673 63.3825L94.7493 1.0809ZM218.578 92.2844C218.751 93.3418 218.908 94.3982 219.049 95.4532L62.6877 10.6878C64.884 9.64254 67.1241 8.66647 69.4057 7.76291L217.839 88.2304C218.109 89.5716 218.356 90.9231 218.578 92.2844ZM54.9611 14.7518C57.2838 13.4089 59.6641 12.1469 62.0988 10.9703L219.134 96.1009C219.479 98.7943 219.724 101.479 219.87 104.151L54.9611 14.7518ZM219.902 104.77C220.01 106.991 220.051 109.203 220.026 111.404L48.8102 18.5858C50.6413 17.3582 52.5138 16.1833 54.4259 15.0633L219.902 104.77ZM43.9529 22.0368C45.379 20.9641 46.8336 19.9244 48.3155 18.9193L220.018 112.001C219.988 113.797 219.913 115.584 219.796 117.363L43.9529 22.0368ZM217.967 131.31C217.578 133.277 217.137 135.227 216.644 137.16L29.1028 35.4918C30.4553 34.0215 31.8484 32.5868 33.2808 31.1899L217.967 131.31ZM25.4919 39.6185C26.5446 38.3535 27.6258 37.1115 28.7348 35.8939L216.508 137.688C216.092 139.284 215.641 140.867 215.156 142.437L25.4919 39.6185ZM185.151 29.6677C189.431 33.6638 193.401 38.0078 197.013 42.6648L118.968 0.355802C124.85 0.831388 130.63 1.77853 136.263 3.16476L185.151 29.6677ZM107.164 0.0407384C110.697 -0.0553309 114.206 0.0196203 117.68 0.259244L197.801 43.6939C199.918 46.4903 201.907 49.3966 203.757 52.4052L107.164 0.0407384ZM216.007 80.5511C215.261 77.858 214.419 75.2122 213.485 72.617L84.9106 2.91574C82.1808 3.55282 79.4962 4.2883 76.8599 5.11801L216.007 80.5511ZM76.1607 5.34067C74.093 6.00656 72.0554 6.73056 70.0495 7.51034L217.701 87.5537C217.259 85.4282 216.758 83.3289 216.199 81.2573L76.1607 5.34067ZM11.6408 60.7834C12.3615 59.3463 13.1132 57.9257 13.8951 56.5229L207.301 161.37C206.549 162.791 205.767 164.196 204.955 165.581L11.6408 60.7834ZM207.547 160.902L14.1538 56.0615C15.1001 54.3827 16.0898 52.7295 17.1217 51.1036L210.088 155.713C209.286 157.466 208.438 159.196 207.547 160.902ZM11.4047 61.257L204.686 166.037C203.703 167.697 202.676 169.33 201.608 170.936L8.97327 66.5057C9.73841 64.7335 10.5493 62.9834 11.4047 61.257ZM8.76391 66.9939L201.313 171.377C199.872 173.52 198.357 175.612 196.769 177.649L5.98147 74.2208C6.82525 71.7755 7.75371 69.3651 8.76391 66.9939ZM21.2305 45.0785C19.8996 46.8982 18.6245 48.7585 17.4069 50.6566L210.308 155.23C211.235 153.179 212.101 151.096 212.902 148.986L21.2305 45.0785ZM21.5467 44.6482L213.091 148.486C213.774 146.662 214.409 144.816 214.995 142.952L25.1481 40.0338C23.9069 41.5401 22.706 43.0788 21.5467 44.6482ZM183.54 28.1924C170.704 16.6738 155.234 8.21408 138.371 3.7059L183.54 28.1924ZM5.80773 74.7282L196.438 178.071C195.225 179.613 193.971 181.123 192.676 182.599L4.06533 80.3504C4.59662 78.4576 5.17785 76.583 5.80773 74.7282ZM188.935 186.655C190.09 185.463 191.218 184.247 192.317 183.006L3.91996 80.8733C3.48043 82.4695 3.07636 84.0785 2.70852 85.6991L188.935 186.655ZM2.58819 86.2356L188.552 187.049C187.141 188.489 185.69 189.892 184.199 191.256L1.44207 92.181C1.76996 90.1836 2.15246 88.201 2.58819 86.2356ZM1.35271 92.7342L183.785 191.633C182.004 193.245 180.168 194.802 178.279 196.299L0.456198 99.8993C0.67681 97.4922 0.976386 95.1028 1.35271 92.7342ZM0.405127 100.473L177.827 196.656C176.158 197.965 174.447 199.228 172.698 200.442L0.0421663 106.843C0.101431 104.708 0.222922 102.584 0.405127 100.473ZM0.0273043 107.437L172.21 200.779C170.705 201.812 169.172 202.809 167.611 203.768L0.0422121 112.927C-0.00873697 111.09 -0.0133909 109.259 0.0273043 107.437ZM0.0608736 113.539L167.089 204.087C165.153 205.262 163.176 206.38 161.159 207.439L0.498191 120.343C0.281272 118.067 0.136084 115.798 0.0608736 113.539ZM154.146 210.806C156.337 209.849 158.486 208.824 160.593 207.734L0.560599 120.978C0.788123 123.229 1.08584 125.487 1.4554 127.749L1.50629 128.058L154.146 210.806ZM117.755 219.751C121.07 219.514 124.405 219.124 127.749 218.578C128.246 218.497 128.742 218.413 129.236 218.325L8.73431 152.999C10.2485 156.575 11.9425 160.045 13.8033 163.398L117.755 219.751ZM8.40823 152.221L130.068 218.174C132.966 217.638 135.817 216.992 138.618 216.242L5.3868 144.016C6.28995 146.807 7.29886 149.543 8.40823 152.221ZM5.15409 143.288L139.357 216.041C141.537 215.441 143.685 214.777 145.801 214.052L3.32426 136.814C3.87134 139.002 4.48208 141.161 5.15409 143.288ZM3.15304 136.119C2.56211 133.688 2.04952 131.222 1.61843 128.72L153.529 211.073C151.223 212.064 148.872 212.98 146.479 213.818L3.15304 136.119ZM116.767 219.818L14.2882 164.263C16.2649 167.75 18.423 171.11 20.7477 174.331L104.838 219.917C108.778 220.099 112.759 220.069 116.767 219.818ZM103.611 219.854L21.475 175.327C24.0705 178.84 26.8658 182.184 29.8414 185.345L90.7017 218.338C94.9404 219.094 99.2494 219.604 103.611 219.854ZM31.0357 186.594C46.563 202.581 66.7757 213.696 89.01 218.023L31.0357 186.594Z" fill="url(#paint0_linear_46_282)" fill-opacity="0.6"/>
<defs>
<linearGradient id="paint0_linear_46_282" x1="1.45543" y1="127.749" x2="203.022" y2="-2.95346" gradientUnits="userSpaceOnUse">
<stop stop-color="#2C79E9"/>
<stop offset="0.609375" stop-color="#E27550"/>
<stop offset="1" stop-color="#9BA1A9"/>
</linearGradient>
</defs>
</svg>
